<?xml version="1.0" encoding="utf-8"?>
<!-- Generator: Adobe Illustrator 16.0.0, SVG Export Plug-In . SVG Version: 6.00 Build 0)  -->
<!DOCTYPE svg PUBLIC "-//W3C//DTD SVG 1.1//EN" "http://www.w3.org/Graphics/SVG/1.1/DTD/svg11.dtd">
<svg version="1.1" id="图层_1" xmlns="http://www.w3.org/2000/svg" xmlns:xlink="http://www.w3.org/1999/xlink" x="0px" y="0px"
	 width="200px" height="200px" viewBox="0 0 200 200" enable-background="new 0 0 200 200" xml:space="preserve">
<path d="M175.233,0H26.565C12.878,0,2.023,11.327,2.023,24.542v148.669c0,18.405,1.888,29.263,19.823,25.485l72.21-21.709
	c5.664-1.888,11.798-1.888,16.991,0l71.266,21.238c16.52,3.303,17.465-10.856,17.465-24.542V24.542
	C200.248,11.327,188.922,0,175.233,0z M148.805,82.122l-18.407,15.103c-1.888,1.416-2.359,3.775-1.888,5.665l5.663,23.125
	c1.415,5.192-4.247,8.967-8.495,6.135l-20.294-12.743c-1.888-1.416-4.248-1.416-6.135,0l-20.295,12.743
	c-4.248,2.832-9.912-1.415-8.496-6.135l5.664-23.125c0.472-2.361,0-4.249-1.888-5.665L55.827,82.122
	c-3.776-3.304-1.888-9.912,3.303-9.912l23.599-1.416c2.36,0,4.248-1.416,4.72-3.776l8.967-22.182c1.888-4.719,8.496-4.719,10.854,0
	l8.968,22.182c0.944,1.889,2.832,3.305,4.721,3.776l23.598,1.416C150.692,72.21,152.579,78.818,148.805,82.122z"/>
</svg>
