<?xml version="1.0" encoding="utf-8"?>
<!-- Generator: Adobe Illustrator 16.0.0, SVG Export Plug-In . SVG Version: 6.00 Build 0)  -->
<!DOCTYPE svg PUBLIC "-//W3C//DTD SVG 1.1//EN" "http://www.w3.org/Graphics/SVG/1.1/DTD/svg11.dtd">
<svg version="1.1" id="图层_1" xmlns="http://www.w3.org/2000/svg" xmlns:xlink="http://www.w3.org/1999/xlink" x="0px" y="0px"
	 width="200px" height="200px" viewBox="0 0 200 200" enable-background="new 0 0 200 200" xml:space="preserve">
<path d="M194.207,165.591h-28.616v28.617c0,2.506-2.504,4.967-4.966,4.967h-9.98c-2.506,0-4.968-2.508-4.968-4.967v-28.617h-28.614
	c-2.506,0-4.968-2.505-4.968-4.967v-9.979c0-2.506,2.508-4.967,4.968-4.967h28.614v-28.615c0-2.507,2.51-4.967,4.968-4.967h9.98
	c2.505,0,4.966,2.507,4.966,4.967v28.615h28.616c2.506,0,4.968,2.508,4.968,4.967v9.979
	C199.175,163.086,196.667,165.591,194.207,165.591z M79.697,199.175H9.979c-4.966,0-9.979-4.967-9.979-9.979v-69.719
	c0-4.966,4.967-9.979,9.979-9.979h69.719c4.967,0,9.979,4.966,9.979,9.979v69.719C89.631,195.437,84.664,199.175,79.697,199.175z
	 M79.697,89.676H9.979C5.012,89.676,0,84.71,0,79.697V9.979C0,5.013,4.967,0,9.979,0h69.719c4.967,0,9.979,4.967,9.979,9.979v69.718
	C89.631,85.94,84.664,89.676,79.697,89.676z M193.798,54.817h-76.37c-2.964,0-5.379-2.415-5.379-5.376v-9.25
	c0-2.962,2.415-5.376,5.379-5.376h76.37c2.96,0,5.377,2.415,5.377,5.376v9.25C199.175,52.448,196.758,54.817,193.798,54.817z"/>
</svg>
