<?xml version="1.0" encoding="utf-8"?>
<!-- Generator: Adobe Illustrator 16.0.0, SVG Export Plug-In . SVG Version: 6.00 Build 0)  -->
<!DOCTYPE svg PUBLIC "-//W3C//DTD SVG 1.1//EN" "http://www.w3.org/Graphics/SVG/1.1/DTD/svg11.dtd">
<svg version="1.1" id="图层_1" xmlns="http://www.w3.org/2000/svg" xmlns:xlink="http://www.w3.org/1999/xlink" x="0px" y="0px"
	 width="200px" height="200px" viewBox="0 0 200 200" enable-background="new 0 0 200 200" xml:space="preserve">
<path d="M179.414,7.41H20.349c-10.895,0-19.974,9.079-19.974,20.338v101.686c0,11.257,9.079,20.336,19.974,20.336h159.429
	c10.894,0,19.974-9.079,19.974-20.336V27.748C199.389,16.489,190.671,7.41,179.414,7.41z M116.223,163.934H83.539
	c0,0-6.537,18.884-26.148,18.884v9.442h85.343v-9.442C122.761,183.18,116.223,163.934,116.223,163.934z M92.981,114.907
	L78.455,129.07l-14.163-14.163l-28.69-28.691l14.164-14.163l28.689,28.69l71.179-71.18l14.163,14.163L92.981,114.907z"/>
</svg>
