<?xml version="1.0" standalone="no"?><!DOCTYPE svg PUBLIC "-//W3C//DTD SVG 1.1//EN" "http://www.w3.org/Graphics/SVG/1.1/DTD/svg11.dtd"><svg t="1582715904593" class="icon" viewBox="0 0 1024 1024" version="1.1" xmlns="http://www.w3.org/2000/svg" p-id="2231" xmlns:xlink="http://www.w3.org/1999/xlink" width="200" height="200"><defs><style type="text/css"></style></defs><path d="M551.867733 668.194133h-184.968533c-79.291733 0-90.897067-11.264-90.897067-88.610133 0-52.667733-0.3072-105.3696 0.136534-158.037333 0.375467-45.806933 20.104533-64.7168 66.833066-64.853334 68.1984-0.136533 136.362667-0.034133 208.554667-0.034133v-48.810667c0.068267-28.194133-0.375467-56.388267 0.477867-84.5824 0.682667-21.879467 11.776-38.126933 32.324266-47.172266 20.5824-9.079467 39.970133-5.8368 57.514667 7.68 5.393067 4.130133 10.274133 8.840533 15.0528 13.550933 90.043733 88.1664 180.087467 176.298667 269.994667 264.6016 38.5024 37.853867 38.434133 62.600533 0.3072 100.0448l-266.820267 261.393067c-4.266667 4.164267-8.533333 8.430933-13.0048 12.424533-17.578667 15.701333-37.888 22.9376-60.5184 13.5168-23.176533-9.591467-34.338133-28.910933-34.747733-53.077333-0.7168-41.403733-0.238933-82.8416-0.238934-128.034134zM179.746133 344.9856c0.238933-60.7232 21.640533-81.646933 83.5584-81.851733 47.0016-0.136533 94.037333 0.136533 141.038934-0.1024 39.2192-0.238933 51.029333-12.253867 51.4048-51.131734 0.034133-4.437333 0.034133-8.9088-0.1024-13.346133-0.955733-30.4128-13.141333-43.9296-44.407467-44.270933-59.904-0.6144-119.9104-1.672533-179.677867 1.365333-89.770667 4.573867-161.109333 76.9024-162.133333 164.795733-1.536 128.341333-1.706667 256.750933 0.170667 385.1264 1.297067 90.487467 77.4144 162.474667 169.915733 164.113067 57.617067 1.024 115.268267 0.887467 172.8512 0 10.5472-0.136533 24.2688-3.310933 30.8224-10.24 20.411733-21.504 15.223467-49.015467 9.079467-73.796267-5.393067-21.640533-26.555733-23.927467-46.318934-23.995733-48.5376-0.1024-97.0752 0.068267-145.6128-0.1024-57.344-0.2048-80.110933-21.981867-80.520533-78.165333-0.443733-56.388267-0.1024-112.8448-0.1024-169.198934 0-56.388267-0.170667-112.810667 0.034133-169.198933z" p-id="2232"></path></svg>