<?xml version="1.0" encoding="utf-8"?>
<!-- Generator: Adobe Illustrator 16.0.0, SVG Export Plug-In . SVG Version: 6.00 Build 0)  -->
<!DOCTYPE svg PUBLIC "-//W3C//DTD SVG 1.1//EN" "http://www.w3.org/Graphics/SVG/1.1/DTD/svg11.dtd">
<svg version="1.1" id="图层_1" xmlns="http://www.w3.org/2000/svg" xmlns:xlink="http://www.w3.org/1999/xlink" x="0px" y="0px"
	 width="200px" height="200px" viewBox="0 0 200 200" enable-background="new 0 0 200 200" xml:space="preserve">
<path d="M101.967,73.272c-6.63-0.021-12.991,2.616-17.661,7.322c-4.696,4.677-7.333,11.035-7.323,17.662
	c0,6.678,2.612,12.93,7.323,17.663c4.674,4.699,11.032,7.336,17.662,7.326c6.63,0.01,12.991-2.627,17.667-7.326
	c4.697-4.676,7.332-11.035,7.321-17.663c0.009-6.627-2.626-12.985-7.321-17.662C114.963,75.888,108.599,73.25,101.967,73.272z"/>
<path d="M193.873,125.372l-14.604-12.481c0.695-4.245,1.053-8.577,1.053-12.886c0-4.311-0.357-8.662-1.053-12.882l14.604-12.486
	c2.261-1.931,3.088-5.061,2.077-7.857l-0.199-0.579c-4.02-11.238-10.042-21.656-17.776-30.747l-0.398-0.471
	c-1.924-2.258-5.038-3.102-7.837-2.122l-18.138,6.453c-6.649-5.479-14.163-9.818-22.234-12.836l-3.506-18.96
	c-0.545-2.922-2.836-5.205-5.761-5.739l-0.603-0.11c-11.727-2.097-23.733-2.097-35.458,0l-0.604,0.11
	c-2.925,0.531-5.217,2.815-5.759,5.739l-3.531,19.05c-8.007,3.035-15.466,7.355-22.083,12.792L33.798,32.86
	c-2.8-0.99-5.919-0.145-7.837,2.122l-0.405,0.471C17.838,44.555,11.819,54.969,7.786,66.2l-0.2,0.579
	c-1.004,2.795-0.18,5.92,2.072,7.857l14.785,12.616c-0.689,4.209-1.033,8.467-1.029,12.732c0,4.286,0.334,8.572,1.029,12.727
	l-14.74,12.617c-2.255,1.936-3.081,5.061-2.078,7.855l0.205,0.585c4.025,11.234,10.045,21.648,17.771,30.743l0.406,0.47
	c1.92,2.261,5.036,3.105,7.836,2.122l18.266-6.498c6.602,5.459,14.063,9.783,22.082,12.796l3.532,19.047
	c0.537,2.924,2.831,5.211,5.759,5.738l0.604,0.108c11.725,2.109,23.733,2.109,35.458,0l0.605-0.108
	c2.925-0.53,5.218-2.816,5.758-5.738l3.508-18.961c8.066-3.026,15.581-7.364,22.236-12.838l18.134,6.454
	c2.8,0.99,5.921,0.145,7.838-2.122l0.4-0.47c7.718-9.102,13.737-19.514,17.775-30.743l0.2-0.585
	C196.957,130.392,196.116,127.295,193.873,125.372L193.873,125.372z M101.811,137.026c-21.676,0.002-39.25-17.567-39.253-39.245
	c0-0.003,0-0.007,0-0.01c-0.002-21.676,17.567-39.251,39.244-39.254c0.003,0,0.006,0,0.009,0
	c21.676-0.002,39.25,17.568,39.253,39.245c0,0.003,0,0.006,0,0.01c0.005,21.677-17.567,39.251-39.242,39.254
	C101.818,137.026,101.814,137.026,101.811,137.026z"/>
</svg>
