<svg width="200" height="200" xmlns="http://www.w3.org/2000/svg"><path d="M187.022,65.345L117.888,6.539c-10.11-8.555-26.098-8.516-36.074,0L12.678,65.331
	c-6.159,5.224-9.704,12.873-9.699,20.927v86.202c0,15.184,12.444,27.54,27.742,27.54h138.258c15.296,0,27.704-12.319,27.741-27.54
	V86.258C196.721,78.23,193.191,70.612,187.022,65.345z M133.423,149.129H66.264c-3.663-0.003-6.631-2.959-6.628-6.607
	c0.003-3.64,2.968-6.594,6.628-6.596h67.172c3.665,0.004,6.631,2.962,6.627,6.607C140.06,146.182,137.086,149.133,133.423,149.129z" stroke="#979797"/></svg>
