<?xml version="1.0" encoding="utf-8"?>
<!-- Generator: Adobe Illustrator 16.0.0, SVG Export Plug-In . SVG Version: 6.00 Build 0)  -->
<!DOCTYPE svg PUBLIC "-//W3C//DTD SVG 1.1//EN" "http://www.w3.org/Graphics/SVG/1.1/DTD/svg11.dtd">
<svg version="1.1" id="图层_1" xmlns="http://www.w3.org/2000/svg" xmlns:xlink="http://www.w3.org/1999/xlink" x="0px" y="0px"
	 width="200px" height="200px" viewBox="0 0 200 200" enable-background="new 0 0 200 200" xml:space="preserve">
<path d="M198.414,167.549l-10.376-7.114c0-1.333,0.453-2.668,0.453-4.447c0-1.778,0-3.109-0.453-4.446l9.476-7.557
	c0.9-0.892,0.9-1.776,0.448-2.667l-9.023-15.556c-0.447-0.445-1.35-0.892-2.705-0.445l-11.276,4.446
	c-2.257-1.776-4.964-3.112-7.674-4.446l-1.803-11.558c0.449-1.331-0.901-2.218-1.806-2.218h-18.051
	c-0.901,0-2.255,0.887-2.255,1.775l-1.803,12c-2.708,0.889-4.965,2.667-7.67,4.446l-10.832-4.446c-1.352-0.446-2.252,0-3.157,0.889
	l-9.022,15.559c-0.453,0.444,0,1.776,0.904,2.666l9.472,7.111c0,1.338-0.448,2.668-0.448,4.446c0,1.779,0,3.114,0.448,4.447
	l-9.472,7.561c-0.904,0.888-0.904,1.775-0.452,2.664l9.023,15.558c0.452,0.446,1.35,0.89,2.704,0.446l11.277-4.447
	c2.257,1.775,4.964,3.11,7.674,4.447l1.802,11.555c0,0.892,0.905,1.775,2.257,1.775h18.049c0.901,0,2.256-0.889,2.256-1.775
	l1.804-11.555c2.707-1.337,5.412-2.668,7.669-4.447l11.277,4.447c0.905,0.443,2.257,0,2.709-0.891l9.023-15.556
	C199.319,169.325,199.319,167.995,198.414,167.549z M154.65,171.551c-8.573,0-15.792-7.115-15.792-15.561
	c0-8.442,7.219-15.556,15.792-15.556c8.574,0,15.794,7.112,15.794,15.556C170.444,164.436,163.225,171.551,154.65,171.551
	L154.65,171.551z M97.098,155.77c0-30.065,24.37-54.436,54.437-54.436c2.311,0,4.573,0.19,6.804,0.469V12.874
	c0-5.638-4.568-10.207-10.206-10.207H12.041c-5.638,0-10.207,4.569-10.207,10.207v170.116c0,5.639,4.569,10.207,10.207,10.207
	h100.031C102.813,183.438,97.098,170.285,97.098,155.77L97.098,155.77z M18.845,23.081h122.483v10.207H18.845V23.081z M18.845,67.31
	h115.679v10.207H18.845V67.31z M18.845,108.138h88.459v10.207H18.845V108.138z M93.695,159.172H18.845v-10.206h74.851V159.172z"/>
</svg>
