<?xml version="1.0" encoding="utf-8"?>
<!-- Generator: Adobe Illustrator 16.0.0, SVG Export Plug-In . SVG Version: 6.00 Build 0)  -->
<!DOCTYPE svg PUBLIC "-//W3C//DTD SVG 1.1//EN" "http://www.w3.org/Graphics/SVG/1.1/DTD/svg11.dtd">
<svg version="1.1" id="图层_1" xmlns="http://www.w3.org/2000/svg" xmlns:xlink="http://www.w3.org/1999/xlink" x="0px" y="0px"
	 width="200px" height="200px" viewBox="0 0 200 200" enable-background="new 0 0 200 200" xml:space="preserve">
<path d="M64.995,200H8.167V1.103h56.828V200z M22.374,185.793h28.414V15.31H22.374V185.793z M128.926,200H72.098V1.103h56.828V200z
	 M86.305,185.793h28.414V15.31H86.305V185.793z M192.857,200H136.03V1.103h56.827V200z M150.236,185.793h28.413V15.31h-28.413
	V185.793z"/>
<path d="M15.271,25.965h35.518v14.208H15.271V25.965z M79.202,25.965h35.517v14.208H79.202V25.965z M146.685,25.965h35.518v14.208
	h-35.518V25.965z M15.271,111.207h35.518v14.207H15.271V111.207z M79.202,111.207h35.517v14.207H79.202V111.207z M146.685,111.207
	h35.518v14.207h-35.518V111.207z M29.478,136.069h14.207v10.654H29.478V136.069z M93.408,136.069h14.207v10.654H93.408V136.069z
	 M157.34,136.069h14.207v10.654H157.34V136.069z"/>
</svg>
