<?xml version="1.0" encoding="utf-8"?>
<!-- Generator: Adobe Illustrator 16.0.0, SVG Export Plug-In . SVG Version: 6.00 Build 0)  -->
<!DOCTYPE svg PUBLIC "-//W3C//DTD SVG 1.1//EN" "http://www.w3.org/Graphics/SVG/1.1/DTD/svg11.dtd">
<svg version="1.1" id="图层_1" xmlns="http://www.w3.org/2000/svg" xmlns:xlink="http://www.w3.org/1999/xlink" x="0px" y="0px"
	 width="200px" height="200px" viewBox="0 0 200 200" enable-background="new 0 0 200 200" xml:space="preserve">
<path d="M182.869,66.605l-3.146-4.344c-1.598-2.196-3.345-6.915-3.594-9.661l-0.475-5.392c-0.599-6.666-5.367-13.731-11.284-16.651
	l-4.769-2.372c-2.422-1.198-6.117-4.544-7.59-6.841l-2.87-4.518c-3.57-5.617-11.009-9.612-17.577-9.413l-5.292,0.175
	c-2.695,0.075-7.488-1.123-9.834-2.472l-4.619-2.646c-5.718-3.295-14.13-3.295-19.847,0l-4.619,2.646
	c-2.347,1.349-7.14,2.546-9.836,2.472l-5.292-0.175c-6.566-0.199-14.006,3.77-17.575,9.413l-2.871,4.543
	c-1.448,2.297-5.167,5.642-7.589,6.841l-4.768,2.371c-5.892,2.921-10.685,9.986-11.284,16.651l-0.475,5.393
	c-0.25,2.721-1.997,7.439-3.595,9.661l-3.146,4.344c-3.894,5.392-4.918,13.905-2.396,20.072l2.022,4.993
	c1.024,2.521,1.623,7.539,1.224,10.259l-0.799,5.344c-0.999,6.615,1.998,14.629,7.04,18.922l4.07,3.445
	c2.072,1.748,4.868,5.92,5.766,8.49l1.723,5.115c0.299,0.926,0.699,1.824,1.173,2.697l-18.898,32.98h27.362l13.157,20.395
	l16.602-28.982c4.118,1.57,8.787,1.945,12.756,0.822l5.118-1.449c2.596-0.748,7.54-0.748,10.136,0l5.117,1.449
	c3.77,1.074,8.188,0.773,12.158-0.6l16.477,28.76l13.157-20.395h27.361l-18.524-32.332c0.624-1.072,1.149-2.195,1.548-3.346
	l1.723-5.115c0.873-2.598,3.694-6.742,5.767-8.49l4.069-3.445c5.043-4.268,8.038-12.307,7.04-18.922l-0.799-5.344
	c-0.399-2.695,0.2-7.713,1.223-10.259l2.022-4.993C187.788,80.512,186.764,71.998,182.869,66.605z M101.884,157.254
	c-38.171,0-69.127-31.533-69.127-70.426c0-38.896,30.957-70.426,69.127-70.426c38.17,0,69.128,31.53,69.128,70.426
	C171.012,125.721,140.054,157.254,101.884,157.254z"/>
<path d="M101.902,23.792c-34.152,0-61.838,28.21-61.838,63.012c0,34.8,27.686,63.009,61.838,63.009s61.838-28.209,61.838-63.009
	C163.74,52.001,136.055,23.792,101.902,23.792z M124.097,117.732l-21.271-11.508l-21.494,11.059L85.5,93.119L68.524,75.718
	l23.841-3.419l11.009-21.819l10.562,22.043l23.765,3.92l-17.325,17.051L124.097,117.732z"/>
</svg>
