<?xml version="1.0" standalone="no"?><!DOCTYPE svg PUBLIC "-//W3C//DTD SVG 1.1//EN" "http://www.w3.org/Graphics/SVG/1.1/DTD/svg11.dtd"><svg t="1582550439537" class="icon" viewBox="0 0 1024 1024" version="1.1" xmlns="http://www.w3.org/2000/svg" p-id="5116" xmlns:xlink="http://www.w3.org/1999/xlink" width="200" height="200"><defs><style type="text/css"></style></defs><path d="M812.07678 40.43484h59.83157c25.784195 0 46.881656 21.097462 46.881657 46.88268v886.421873c0 25.784195-21.097462 46.88268-46.881657 46.88268H203.413423c-54.006923 0-98.20343-44.19139-98.20343-98.20343v-33.354599V44.138178c0-22.418547 18.344774-40.764344 40.764344-40.764344h625.510014c21.17114 0.002047 38.705456 16.36161 40.592429 37.061006zM290.347204 558.322932c-2.931766 0-5.329368 2.394532-5.329368 5.325275v58.829756c0 2.930743 2.397602 5.328345 5.329368 5.328345h443.306615c2.931766 0 5.328345-2.397602 5.328345-5.328345v-58.829756c0-2.930743-2.396578-5.325275-5.328345-5.325275H290.347204z m0 183.848871c-2.931766 0-5.329368 2.397602-5.329368 5.329368v58.828733c0 2.928696 2.397602 5.325275 5.329368 5.325274h443.306615c2.931766 0 5.328345-2.396578 5.328345-5.325274v-58.828733c0-2.931766-2.396578-5.329368-5.328345-5.329368H290.347204z m221.654843-371.159579l76.018195 39.955934c2.488676 1.353831 4.740968 2.035352 6.767111 2.035352 2.364856 0 4.143359-0.821713 5.338577-2.457977 1.195219-1.640357 1.784642-3.643986 1.772363-6.009865 0-0.679474-0.107447-1.801015-0.33155-3.377927l-14.565712-84.65693 61.641796-59.942087c2.820226-3.040237 4.229316-5.750969 4.229316-8.130151 0-4.174058-3.157917-6.77018-9.481936-7.781205l-84.999737-12.363561-38.09045-77.03536c-2.153032-4.634545-4.91493-6.951305-8.297973-6.951305-3.390207 0-6.160291 2.316761-8.30309 6.951305l-38.093521 77.03536-85.001782 12.363561c-6.318903 1.011025-9.47989 3.607147-9.47989 7.781205 0 2.376112 1.40909 5.087868 4.232386 8.130151l61.638725 59.942087-14.562641 84.65693c-0.22308 1.573842-0.33462 2.698453-0.33462 3.377927-0.00921 2.366903 0.581237 4.370532 1.773386 6.006795 1.197266 1.640357 2.972699 2.461046 5.337554 2.461047 2.027166 0 4.283551-0.681521 6.77018-2.035352l76.023313-39.955934z" fill="#333333" p-id="5117"></path></svg>