<?xml version="1.0" encoding="utf-8"?>
<!-- Generator: Adobe Illustrator 16.0.0, SVG Export Plug-In . SVG Version: 6.00 Build 0)  -->
<!DOCTYPE svg PUBLIC "-//W3C//DTD SVG 1.1//EN" "http://www.w3.org/Graphics/SVG/1.1/DTD/svg11.dtd">
<svg version="1.1" id="图层_1" xmlns="http://www.w3.org/2000/svg" xmlns:xlink="http://www.w3.org/1999/xlink" x="0px" y="0px"
	 width="200px" height="200px" viewBox="0 0 200 200" enable-background="new 0 0 200 200" xml:space="preserve">
<path d="M194.047,39.525L101.064,77.4L7.869,39.525l92.981-35.96L194.047,39.525z M0.208,55.271l92.771,38.724v104.899
	c-7.375-3.26-15.033-6.671-22.979-10.215c-6.807-2.975-14.504-6.306-23.086-9.996c-8.582-3.69-17.197-7.379-25.852-11.069
	c-3.12-1.418-5.959-3.296-8.512-5.636c-2.554-2.338-4.753-4.895-6.595-7.657c-1.845-2.77-3.263-5.713-4.257-8.832
	c-0.994-3.121-1.49-6.169-1.49-9.148V55.271L0.208,55.271z M199.791,55.271v80.644c0,3.684-0.709,7.271-2.127,10.741
	c-1.418,3.478-3.229,6.737-5.428,9.784c-2.195,3.055-4.645,5.75-7.342,8.09c-2.691,2.345-5.318,4.147-7.871,5.428
	c-7.518,3.12-15.389,6.381-23.617,9.784c-8.227,3.405-15.816,6.525-22.768,9.366c-8.084,3.4-16.027,6.665-23.832,9.785V93.995
	L199.791,55.271z"/>
</svg>
